<mxfile host="app.diagrams.net" agent="Mozilla/5.0 (Windows NT 10.0; Win64; x64; rv:139.0) Gecko/20100101 Firefox/139.0" version="27.1.6" pages="2">
  <diagram name="Page-1" id="rbZlAbm2sE7qFV5PERnI">
    <mxGraphModel dx="1310" dy="785" grid="1" gridSize="10" guides="1" tooltips="1" connect="1" arrows="1" fold="1" page="1" pageScale="1" pageWidth="3300" pageHeight="4681" math="0" shadow="0">
      <root>
        <mxCell id="0" />
        <mxCell id="1" parent="0" />
        <mxCell id="X25jqg255CfPCxzIuCUv-3" style="edgeStyle=orthogonalEdgeStyle;rounded=0;orthogonalLoop=1;jettySize=auto;html=1;exitX=1;exitY=0.5;exitDx=0;exitDy=0;entryX=0;entryY=0.5;entryDx=0;entryDy=0;" edge="1" parent="1" source="X25jqg255CfPCxzIuCUv-1" target="X25jqg255CfPCxzIuCUv-2">
          <mxGeometry relative="1" as="geometry" />
        </mxCell>
        <mxCell id="X25jqg255CfPCxzIuCUv-1" value="data&#xa;Raw Clinical and&#xa;Pathological Data" style="rectangle;fillColor=#fff2cc;strokeColor=#d6b656;" name="data" vertex="1" parent="1">
          <mxGeometry x="340" y="230" width="100" height="50" as="geometry" />
        </mxCell>
        <mxCell id="X25jqg255CfPCxzIuCUv-5" style="edgeStyle=orthogonalEdgeStyle;rounded=0;orthogonalLoop=1;jettySize=auto;html=1;exitX=1;exitY=0.5;exitDx=0;exitDy=0;entryX=0.5;entryY=0;entryDx=0;entryDy=0;" edge="1" parent="1" source="X25jqg255CfPCxzIuCUv-2" target="X25jqg255CfPCxzIuCUv-4">
          <mxGeometry relative="1" as="geometry" />
        </mxCell>
        <mxCell id="X25jqg255CfPCxzIuCUv-2" value="transform" style="rounded=1;whiteSpace=wrap;html=1;arcSize=50;fillColor=#f8cecc;strokeColor=#b85450;" name="transform" vertex="1" parent="1">
          <mxGeometry x="520" y="230" width="100" height="50" as="geometry" />
        </mxCell>
        <mxCell id="X25jqg255CfPCxzIuCUv-7" style="edgeStyle=orthogonalEdgeStyle;rounded=0;orthogonalLoop=1;jettySize=auto;html=1;exitX=0.5;exitY=1;exitDx=0;exitDy=0;entryX=1;entryY=0.5;entryDx=0;entryDy=0;" edge="1" parent="1" source="X25jqg255CfPCxzIuCUv-4" target="X25jqg255CfPCxzIuCUv-6">
          <mxGeometry relative="1" as="geometry" />
        </mxCell>
        <mxCell id="X25jqg255CfPCxzIuCUv-4" value="data&#xa;Processed and&#xa;Normalized" style="rectangle;fillColor=#fff2cc;strokeColor=#d6b656;" name="data" vertex="1" parent="1">
          <mxGeometry x="650" y="330" width="100" height="50" as="geometry" />
        </mxCell>
        <mxCell id="X25jqg255CfPCxzIuCUv-9" style="edgeStyle=orthogonalEdgeStyle;rounded=0;orthogonalLoop=1;jettySize=auto;html=1;exitX=0;exitY=0.5;exitDx=0;exitDy=0;entryX=0.5;entryY=0;entryDx=0;entryDy=0;" edge="1" parent="1" source="X25jqg255CfPCxzIuCUv-6" target="X25jqg255CfPCxzIuCUv-8">
          <mxGeometry relative="1" as="geometry" />
        </mxCell>
        <mxCell id="X25jqg255CfPCxzIuCUv-6" value="transform" style="rounded=1;whiteSpace=wrap;html=1;arcSize=50;fillColor=#f8cecc;strokeColor=#b85450;" name="transform" vertex="1" parent="1">
          <mxGeometry x="520" y="430" width="100" height="50" as="geometry" />
        </mxCell>
        <mxCell id="X25jqg255CfPCxzIuCUv-11" style="edgeStyle=orthogonalEdgeStyle;rounded=0;orthogonalLoop=1;jettySize=auto;html=1;exitX=0.5;exitY=1;exitDx=0;exitDy=0;entryX=0.5;entryY=0;entryDx=0;entryDy=0;" edge="1" parent="1" source="X25jqg255CfPCxzIuCUv-8" target="X25jqg255CfPCxzIuCUv-10">
          <mxGeometry relative="1" as="geometry" />
        </mxCell>
        <mxCell id="X25jqg255CfPCxzIuCUv-8" value="data&#xa;Time Segmented&#xa;Data" style="rectangle;fillColor=#fff2cc;strokeColor=#d6b656;" name="data" vertex="1" parent="1">
          <mxGeometry x="390" y="530" width="100" height="50" as="geometry" />
        </mxCell>
        <mxCell id="X25jqg255CfPCxzIuCUv-13" style="edgeStyle=orthogonalEdgeStyle;rounded=0;orthogonalLoop=1;jettySize=auto;html=1;exitX=0.5;exitY=1;exitDx=0;exitDy=0;entryX=0.5;entryY=0;entryDx=0;entryDy=0;" edge="1" parent="1" source="X25jqg255CfPCxzIuCUv-10" target="X25jqg255CfPCxzIuCUv-12">
          <mxGeometry relative="1" as="geometry" />
        </mxCell>
        <mxCell id="X25jqg255CfPCxzIuCUv-10" value="infer:deduce" style="rounded=1;whiteSpace=wrap;html=1;arcSize=50;fillColor=#bac8d3;strokeColor=#23445d;" name="infer:deduce" vertex="1" parent="1">
          <mxGeometry x="390" y="660" width="100" height="50" as="geometry" />
        </mxCell>
        <mxCell id="X25jqg255CfPCxzIuCUv-15" style="edgeStyle=orthogonalEdgeStyle;rounded=0;orthogonalLoop=1;jettySize=auto;html=1;exitX=0.5;exitY=1;exitDx=0;exitDy=0;entryX=0;entryY=0.5;entryDx=0;entryDy=0;" edge="1" parent="1" source="X25jqg255CfPCxzIuCUv-12" target="X25jqg255CfPCxzIuCUv-14">
          <mxGeometry relative="1" as="geometry" />
        </mxCell>
        <mxCell id="X25jqg255CfPCxzIuCUv-12" value="symbol&#xa;Prognostic Factors&#xa;per Time" style="rectangle;fillColor=#dae8fc;strokeColor=#6c8ebf;" name="symbol" vertex="1" parent="1">
          <mxGeometry x="390" y="790" width="100" height="50" as="geometry" />
        </mxCell>
        <mxCell id="X25jqg255CfPCxzIuCUv-17" style="edgeStyle=orthogonalEdgeStyle;rounded=0;orthogonalLoop=1;jettySize=auto;html=1;exitX=1;exitY=0.5;exitDx=0;exitDy=0;entryX=0;entryY=0.5;entryDx=0;entryDy=0;" edge="1" parent="1" source="X25jqg255CfPCxzIuCUv-14" target="X25jqg255CfPCxzIuCUv-16">
          <mxGeometry relative="1" as="geometry" />
        </mxCell>
        <mxCell id="X25jqg255CfPCxzIuCUv-14" value="generate:train" style="rounded=1;whiteSpace=wrap;html=1;arcSize=50;fillColor=#e1d5e7;strokeColor=#9673a6;" name="generate:train" vertex="1" parent="1">
          <mxGeometry x="520" y="890" width="100" height="50" as="geometry" />
        </mxCell>
        <mxCell id="X25jqg255CfPCxzIuCUv-19" style="edgeStyle=orthogonalEdgeStyle;rounded=0;orthogonalLoop=1;jettySize=auto;html=1;exitX=1;exitY=0.5;exitDx=0;exitDy=0;entryX=0;entryY=0.5;entryDx=0;entryDy=0;" edge="1" parent="1" source="X25jqg255CfPCxzIuCUv-16" target="X25jqg255CfPCxzIuCUv-18">
          <mxGeometry relative="1" as="geometry" />
        </mxCell>
        <mxCell id="X25jqg255CfPCxzIuCUv-16" value="model:hybrid&#xa;DS Tool" style="shape=hexagon;perimeter=hexagonPerimeter2;fillColor=#b0e3e6;strokeColor=#0e8088;" name="model" vertex="1" parent="1">
          <mxGeometry x="700" y="890" width="120" height="50" as="geometry" />
        </mxCell>
        <mxCell id="X25jqg255CfPCxzIuCUv-23" style="edgeStyle=orthogonalEdgeStyle;rounded=0;orthogonalLoop=1;jettySize=auto;html=1;exitX=1;exitY=0.5;exitDx=0;exitDy=0;entryX=0;entryY=0.5;entryDx=0;entryDy=0;" edge="1" parent="1" source="X25jqg255CfPCxzIuCUv-18" target="X25jqg255CfPCxzIuCUv-22">
          <mxGeometry relative="1" as="geometry" />
        </mxCell>
        <mxCell id="X25jqg255CfPCxzIuCUv-18" value="infer:deduce" style="rounded=1;whiteSpace=wrap;html=1;arcSize=50;fillColor=#bac8d3;strokeColor=#23445d;" name="infer:deduce" vertex="1" parent="1">
          <mxGeometry x="900" y="890" width="100" height="50" as="geometry" />
        </mxCell>
        <mxCell id="X25jqg255CfPCxzIuCUv-21" style="edgeStyle=orthogonalEdgeStyle;rounded=0;orthogonalLoop=1;jettySize=auto;html=1;entryX=0.5;entryY=0;entryDx=0;entryDy=0;" edge="1" parent="1" source="X25jqg255CfPCxzIuCUv-20" target="X25jqg255CfPCxzIuCUv-18">
          <mxGeometry relative="1" as="geometry" />
        </mxCell>
        <mxCell id="X25jqg255CfPCxzIuCUv-20" value="data&#xa;Patient Clinical and&#xa;Pathological Data" style="rectangle;fillColor=#fff2cc;strokeColor=#d6b656;" name="data" vertex="1" parent="1">
          <mxGeometry x="900" y="760" width="100" height="50" as="geometry" />
        </mxCell>
        <mxCell id="X25jqg255CfPCxzIuCUv-22" value="symbol&#xa;Relapse and&#xa;Factors" style="rectangle;fillColor=#dae8fc;strokeColor=#6c8ebf;" name="symbol" vertex="1" parent="1">
          <mxGeometry x="1080" y="890" width="100" height="50" as="geometry" />
        </mxCell>
        <mxCell id="X25jqg255CfPCxzIuCUv-28" value="error" style="text;html=1;align=center;verticalAlign=middle;whiteSpace=wrap;rounded=0;dashed=1;fillColor=#f5f5f5;fontColor=#333333;strokeColor=#666666;strokeWidth=2;" name="text" vertex="1" parent="1">
          <mxGeometry x="530" y="630" width="130" height="110" as="geometry" />
        </mxCell>
      </root>
    </mxGraphModel>
  </diagram>
  <diagram name="Copy of Page-1" id="3blkt_ZuNFKT1XJ1m1Yv">
    <mxGraphModel dx="1572" dy="942" grid="1" gridSize="10" guides="1" tooltips="1" connect="1" arrows="1" fold="1" page="1" pageScale="1" pageWidth="3300" pageHeight="4681" math="0" shadow="0">
      <root>
        <mxCell id="imFEyQ5sezNYNd18WBW0-0" />
        <mxCell id="imFEyQ5sezNYNd18WBW0-1" parent="imFEyQ5sezNYNd18WBW0-0" />
        <mxCell id="imFEyQ5sezNYNd18WBW0-2" style="edgeStyle=orthogonalEdgeStyle;rounded=0;orthogonalLoop=1;jettySize=auto;html=1;exitX=1;exitY=0.5;exitDx=0;exitDy=0;entryX=0;entryY=0.5;entryDx=0;entryDy=0;" edge="1" parent="imFEyQ5sezNYNd18WBW0-1" source="imFEyQ5sezNYNd18WBW0-3" target="imFEyQ5sezNYNd18WBW0-5">
          <mxGeometry relative="1" as="geometry" />
        </mxCell>
        <mxCell id="imFEyQ5sezNYNd18WBW0-3" value="data&#xa;Raw Clinical and&#xa;Pathological Data" style="rectangle;fillColor=#fff2cc;strokeColor=#d6b656;" name="data" vertex="1" parent="imFEyQ5sezNYNd18WBW0-1">
          <mxGeometry x="340" y="230" width="100" height="50" as="geometry" />
        </mxCell>
        <mxCell id="imFEyQ5sezNYNd18WBW0-4" style="edgeStyle=orthogonalEdgeStyle;rounded=0;orthogonalLoop=1;jettySize=auto;html=1;exitX=1;exitY=0.5;exitDx=0;exitDy=0;entryX=0.5;entryY=0;entryDx=0;entryDy=0;" edge="1" parent="imFEyQ5sezNYNd18WBW0-1" source="imFEyQ5sezNYNd18WBW0-5" target="imFEyQ5sezNYNd18WBW0-7">
          <mxGeometry relative="1" as="geometry" />
        </mxCell>
        <mxCell id="imFEyQ5sezNYNd18WBW0-5" value="transform" style="rounded=1;whiteSpace=wrap;html=1;arcSize=50;fillColor=#f8cecc;strokeColor=#b85450;" name="transform" vertex="1" parent="imFEyQ5sezNYNd18WBW0-1">
          <mxGeometry x="520" y="230" width="100" height="50" as="geometry" />
        </mxCell>
        <mxCell id="imFEyQ5sezNYNd18WBW0-6" style="edgeStyle=orthogonalEdgeStyle;rounded=0;orthogonalLoop=1;jettySize=auto;html=1;exitX=0.5;exitY=1;exitDx=0;exitDy=0;entryX=1;entryY=0.5;entryDx=0;entryDy=0;" edge="1" parent="imFEyQ5sezNYNd18WBW0-1" source="imFEyQ5sezNYNd18WBW0-7" target="imFEyQ5sezNYNd18WBW0-9">
          <mxGeometry relative="1" as="geometry" />
        </mxCell>
        <mxCell id="imFEyQ5sezNYNd18WBW0-7" value="data&#xa;Processed and&#xa;Normalized" style="rectangle;fillColor=#fff2cc;strokeColor=#d6b656;" name="data" vertex="1" parent="imFEyQ5sezNYNd18WBW0-1">
          <mxGeometry x="650" y="330" width="100" height="50" as="geometry" />
        </mxCell>
        <mxCell id="imFEyQ5sezNYNd18WBW0-8" style="edgeStyle=orthogonalEdgeStyle;rounded=0;orthogonalLoop=1;jettySize=auto;html=1;exitX=0;exitY=0.5;exitDx=0;exitDy=0;entryX=0.5;entryY=0;entryDx=0;entryDy=0;" edge="1" parent="imFEyQ5sezNYNd18WBW0-1" source="imFEyQ5sezNYNd18WBW0-9" target="imFEyQ5sezNYNd18WBW0-11">
          <mxGeometry relative="1" as="geometry" />
        </mxCell>
        <mxCell id="imFEyQ5sezNYNd18WBW0-9" value="transform" style="rounded=1;whiteSpace=wrap;html=1;arcSize=50;fillColor=#f8cecc;strokeColor=#b85450;" name="transform" vertex="1" parent="imFEyQ5sezNYNd18WBW0-1">
          <mxGeometry x="520" y="430" width="100" height="50" as="geometry" />
        </mxCell>
        <mxCell id="imFEyQ5sezNYNd18WBW0-10" style="edgeStyle=orthogonalEdgeStyle;rounded=0;orthogonalLoop=1;jettySize=auto;html=1;exitX=0.5;exitY=1;exitDx=0;exitDy=0;entryX=0.5;entryY=0;entryDx=0;entryDy=0;" edge="1" parent="imFEyQ5sezNYNd18WBW0-1" source="imFEyQ5sezNYNd18WBW0-11" target="imFEyQ5sezNYNd18WBW0-13">
          <mxGeometry relative="1" as="geometry" />
        </mxCell>
        <mxCell id="imFEyQ5sezNYNd18WBW0-11" value="data&#xa;Time Segmented&#xa;Data" style="rectangle;fillColor=#fff2cc;strokeColor=#d6b656;" name="data" vertex="1" parent="imFEyQ5sezNYNd18WBW0-1">
          <mxGeometry x="390" y="530" width="100" height="50" as="geometry" />
        </mxCell>
        <mxCell id="imFEyQ5sezNYNd18WBW0-12" style="edgeStyle=orthogonalEdgeStyle;rounded=0;orthogonalLoop=1;jettySize=auto;html=1;exitX=0.5;exitY=1;exitDx=0;exitDy=0;entryX=0.5;entryY=0;entryDx=0;entryDy=0;" edge="1" parent="imFEyQ5sezNYNd18WBW0-1" source="imFEyQ5sezNYNd18WBW0-13" target="imFEyQ5sezNYNd18WBW0-15">
          <mxGeometry relative="1" as="geometry" />
        </mxCell>
        <mxCell id="imFEyQ5sezNYNd18WBW0-13" value="infer:deduce" style="rounded=1;whiteSpace=wrap;html=1;arcSize=50;fillColor=#bac8d3;strokeColor=#23445d;" name="infer:deduce" vertex="1" parent="imFEyQ5sezNYNd18WBW0-1">
          <mxGeometry x="390" y="660" width="100" height="50" as="geometry" />
        </mxCell>
        <mxCell id="imFEyQ5sezNYNd18WBW0-14" style="edgeStyle=orthogonalEdgeStyle;rounded=0;orthogonalLoop=1;jettySize=auto;html=1;exitX=0.5;exitY=1;exitDx=0;exitDy=0;entryX=0;entryY=0.5;entryDx=0;entryDy=0;" edge="1" parent="imFEyQ5sezNYNd18WBW0-1" source="imFEyQ5sezNYNd18WBW0-15" target="imFEyQ5sezNYNd18WBW0-17">
          <mxGeometry relative="1" as="geometry" />
        </mxCell>
        <mxCell id="imFEyQ5sezNYNd18WBW0-15" value="symbol&#xa;Prognostic Factors&#xa;per Time" style="rectangle;fillColor=#dae8fc;strokeColor=#6c8ebf;" name="symbol" vertex="1" parent="imFEyQ5sezNYNd18WBW0-1">
          <mxGeometry x="390" y="790" width="100" height="50" as="geometry" />
        </mxCell>
        <mxCell id="imFEyQ5sezNYNd18WBW0-16" style="edgeStyle=orthogonalEdgeStyle;rounded=0;orthogonalLoop=1;jettySize=auto;html=1;exitX=1;exitY=0.5;exitDx=0;exitDy=0;entryX=0;entryY=0.5;entryDx=0;entryDy=0;" edge="1" parent="imFEyQ5sezNYNd18WBW0-1" source="imFEyQ5sezNYNd18WBW0-17" target="imFEyQ5sezNYNd18WBW0-19">
          <mxGeometry relative="1" as="geometry" />
        </mxCell>
        <mxCell id="imFEyQ5sezNYNd18WBW0-17" value="generate:train" style="rounded=1;whiteSpace=wrap;html=1;arcSize=50;fillColor=#e1d5e7;strokeColor=#9673a6;" name="generate:train" vertex="1" parent="imFEyQ5sezNYNd18WBW0-1">
          <mxGeometry x="520" y="890" width="100" height="50" as="geometry" />
        </mxCell>
        <mxCell id="imFEyQ5sezNYNd18WBW0-18" style="edgeStyle=orthogonalEdgeStyle;rounded=0;orthogonalLoop=1;jettySize=auto;html=1;exitX=1;exitY=0.5;exitDx=0;exitDy=0;entryX=0;entryY=0.5;entryDx=0;entryDy=0;" edge="1" parent="imFEyQ5sezNYNd18WBW0-1" source="imFEyQ5sezNYNd18WBW0-19" target="imFEyQ5sezNYNd18WBW0-21">
          <mxGeometry relative="1" as="geometry" />
        </mxCell>
        <mxCell id="imFEyQ5sezNYNd18WBW0-19" value="model:hybrid&#xa;DS Tool" style="shape=hexagon;perimeter=hexagonPerimeter2;fillColor=#b0e3e6;strokeColor=#0e8088;" name="model" vertex="1" parent="imFEyQ5sezNYNd18WBW0-1">
          <mxGeometry x="700" y="890" width="120" height="50" as="geometry" />
        </mxCell>
        <mxCell id="imFEyQ5sezNYNd18WBW0-20" style="edgeStyle=orthogonalEdgeStyle;rounded=0;orthogonalLoop=1;jettySize=auto;html=1;exitX=1;exitY=0.5;exitDx=0;exitDy=0;entryX=0;entryY=0.5;entryDx=0;entryDy=0;" edge="1" parent="imFEyQ5sezNYNd18WBW0-1" source="imFEyQ5sezNYNd18WBW0-21" target="imFEyQ5sezNYNd18WBW0-24">
          <mxGeometry relative="1" as="geometry" />
        </mxCell>
        <mxCell id="imFEyQ5sezNYNd18WBW0-21" value="infer:deduce" style="rounded=1;whiteSpace=wrap;html=1;arcSize=50;fillColor=#bac8d3;strokeColor=#23445d;" name="infer:deduce" vertex="1" parent="imFEyQ5sezNYNd18WBW0-1">
          <mxGeometry x="900" y="890" width="100" height="50" as="geometry" />
        </mxCell>
        <mxCell id="imFEyQ5sezNYNd18WBW0-22" style="edgeStyle=orthogonalEdgeStyle;rounded=0;orthogonalLoop=1;jettySize=auto;html=1;entryX=0.5;entryY=0;entryDx=0;entryDy=0;" edge="1" parent="imFEyQ5sezNYNd18WBW0-1" source="imFEyQ5sezNYNd18WBW0-23" target="imFEyQ5sezNYNd18WBW0-21">
          <mxGeometry relative="1" as="geometry" />
        </mxCell>
        <mxCell id="imFEyQ5sezNYNd18WBW0-23" value="data&#xa;Patient Clinical and&#xa;Pathological Data" style="rectangle;fillColor=#fff2cc;strokeColor=#d6b656;" name="data" vertex="1" parent="imFEyQ5sezNYNd18WBW0-1">
          <mxGeometry x="900" y="760" width="100" height="50" as="geometry" />
        </mxCell>
        <mxCell id="imFEyQ5sezNYNd18WBW0-24" value="symbol&#xa;Relapse and&#xa;Factors" style="rectangle;fillColor=#dae8fc;strokeColor=#6c8ebf;" name="symbol" vertex="1" parent="imFEyQ5sezNYNd18WBW0-1">
          <mxGeometry x="1080" y="890" width="100" height="50" as="geometry" />
        </mxCell>
        <mxCell id="imFEyQ5sezNYNd18WBW0-25" value="error" style="text;html=1;align=center;verticalAlign=middle;whiteSpace=wrap;rounded=0;dashed=1;fillColor=#f5f5f5;fontColor=#333333;strokeColor=#666666;strokeWidth=2;" name="text" vertex="1" parent="imFEyQ5sezNYNd18WBW0-1">
          <mxGeometry x="530" y="630" width="130" height="110" as="geometry" />
        </mxCell>
      </root>
    </mxGraphModel>
  </diagram>
</mxfile>
